<?xml version="1.0" encoding="UTF-8"?>
<svg width="800px" height="800px" viewBox="0 0 800 800" version="1.1" xmlns="http://www.w3.org/2000/svg" xmlns:xlink="http://www.w3.org/1999/xlink">
    <!-- Generator: Sketch 58 (84663) - https://sketch.com -->
    <title>jinabox-logo2</title>
    <desc>Created with Sketch.</desc>
    <g id="jinabox-logo2" stroke="none" stroke-width="1" fill="none" fill-rule="evenodd">
        <g id="编组" transform="translate(173.000000, 173.000000)">
            <path d="M106,0 C164.542183,0 212,47.4578165 212,106 C212,164.542183 164.542183,212 106,212 C47.4578165,212 0,164.542183 0,106 C0,47.4578165 47.4578165,0 106,0 Z M70,56.1002988 C66.6862915,56.1002988 64,58.7865903 64,62.1002988 L64,62.1002988 L64,149.899701 C64,151.067319 64.3406844,152.209566 64.9802888,153.186417 C66.7954918,155.958727 70.5144057,156.734615 73.2867156,154.919412 L73.2867156,154.919412 L140.333532,111.019711 C141.024281,110.567435 141.614252,109.977464 142.066528,109.286716 C143.88173,106.514406 143.105842,102.795492 140.333532,100.980289 L140.333532,100.980289 L73.2867156,57.0805876 C72.3098652,56.4409832 71.1676175,56.1002988 70,56.1002988 Z" id="形状结合" fill="#FFD273"></path>
            <path d="M421,0 L275,0 C256.774603,3.34795107e-15 242,14.7746033 242,33 L242,38.3364929 C242,56.5618896 256.774603,71.3364929 275,71.3364929 L372.663507,71.3364929 C378.186355,71.3364929 382.663507,75.8136454 382.663507,81.3364929 L382.663507,179 C382.663507,197.225397 397.43811,212 415.663507,212 L421,212 C439.225397,212 454,197.225397 454,179 L454,33 C454,14.7746033 439.225397,-3.34795107e-15 421,0 Z" id="形状结合" fill="#009999" fill-rule="nonzero"></path>
            <path d="M179,242 L33,242 C14.7746033,242 -2.23196738e-15,256.774603 0,275 L0,280.336493 C2.23196738e-15,298.56189 14.7746033,313.336493 33,313.336493 L130.663507,313.336493 C136.186355,313.336493 140.663507,317.813645 140.663507,323.336493 L140.663507,421 C140.663507,439.225397 155.43811,454 173.663507,454 L179,454 C197.225397,454 212,439.225397 212,421 L212,275 C212,256.774603 197.225397,242 179,242 Z" id="形状结合备份" fill="#009999" fill-rule="nonzero" transform="translate(106.000000, 348.000000) scale(-1, -1) translate(-106.000000, -348.000000) "></path>
            <g id="编组备份-3" transform="translate(242.000000, 242.000000)" fill="#FF7673">
                <circle id="椭圆形" cx="106" cy="106" r="106"></circle>
            </g>
        </g>
    </g>
</svg>