<?xml version="1.0" encoding="UTF-8"?>
<svg width="2000px" height="800px" viewBox="0 0 2000 800" version="1.1" xmlns="http://www.w3.org/2000/svg" xmlns:xlink="http://www.w3.org/1999/xlink">
    <!-- Generator: Sketch 58 (84663) - https://sketch.com -->
    <title>jinabox-logo</title>
    <desc>Created with Sketch.</desc>
    <g id="jinabox-logo" stroke="none" stroke-width="1" fill="none" fill-rule="evenodd">
        <g id="编组-2" transform="translate(156.000000, 250.000000)">
            <g id="编组">
                <path d="M70,0 C108.659932,0 140,31.3400675 140,70 C140,108.659932 108.659932,140 70,140 C31.3400675,140 0,108.659932 0,70 C0,31.3400675 31.3400675,0 70,0 Z M48.2641509,38.7795441 C44.9504424,38.7795441 42.2641509,41.4658356 42.2641509,44.7795441 L42.2641509,44.7795441 L42.2641509,95.2204559 C42.2641509,96.3880734 42.6048353,97.5303211 43.2444398,98.5071716 C45.0596427,101.279481 48.7785567,102.05537 51.5508666,100.240167 L51.5508666,100.240167 L90.0693811,75.0197112 C90.7601297,74.5674353 91.3501007,73.9774643 91.8023766,73.2867156 C93.6175795,70.5144057 92.841691,66.7954918 90.0693811,64.9802888 L90.0693811,64.9802888 L51.5508666,39.7598329 C50.5740162,39.1202285 49.4317684,38.7795441 48.2641509,38.7795441 Z" id="形状结合" fill="#FFD273"></path>
                <path d="M267,0 L183.554502,0 C170.54571,2.3896764e-15 160,10.5457099 160,23.5545024 C160,36.5632948 170.54571,47.1090047 183.554502,47.1090047 L242.890995,47.1090047 C248.413843,47.1090047 252.890995,51.5861572 252.890995,57.1090047 L252.890995,116.445498 C252.890995,129.45429 263.436705,140 276.445498,140 C289.45429,140 300,129.45429 300,116.445498 L300,33 C300,14.7746033 285.225397,-3.34795107e-15 267,0 Z" id="形状结合" fill="#009999" fill-rule="nonzero"></path>
                <path d="M107,160 L23.5545024,160 C10.5457099,160 -1.5931176e-15,170.54571 0,183.554502 C1.5931176e-15,196.563295 10.5457099,207.109005 23.5545024,207.109005 L82.8909953,207.109005 C88.4138428,207.109005 92.8909953,211.586157 92.8909953,217.109005 L92.8909953,276.445498 C92.8909953,289.45429 103.436705,300 116.445498,300 C129.45429,300 140,289.45429 140,276.445498 L140,193 C140,174.774603 125.225397,160 107,160 Z" id="形状结合备份" fill="#009999" fill-rule="nonzero" transform="translate(70.000000, 230.000000) scale(-1, -1) translate(-70.000000, -230.000000) "></path>
                <g id="编组备份-3" transform="translate(160.000000, 160.000000)" fill="#FF7673">
                    <circle id="椭圆形" cx="70" cy="70" r="70"></circle>
                </g>
            </g>
            <path d="M475.013778,31.5456292 C475.013778,35.2216002 473.691144,38.3819913 471.045836,41.0268972 C468.400528,43.6718032 465.239656,44.9942363 461.563127,44.9942363 C457.886597,44.9942363 454.725725,43.6718032 452.080417,41.0268972 C449.435109,38.3819913 448.112475,35.2216002 448.112475,31.5456292 C448.112475,27.8696582 449.435109,24.7092671 452.080417,22.0643612 C454.725725,19.4194552 457.886597,18.0970221 461.563127,18.0970221 C465.239656,18.0970221 468.400528,19.4194552 471.045836,22.0643612 C473.691144,24.7092671 475.013778,27.8696582 475.013778,31.5456292 Z M450.802606,225.446686 L450.802606,85.581172 C450.802606,82.6224636 451.856229,80.0896679 453.963509,77.9827089 C456.070788,75.87575 458.603969,74.8222863 461.563127,74.8222863 C464.522285,74.8222863 467.055465,75.87575 469.162745,77.9827089 C471.270024,80.0896679 472.323648,82.6224636 472.323648,85.581172 L472.323648,225.446686 C472.323648,243.288594 466.024322,258.507782 453.425483,271.104707 C440.826643,283.701632 425.605141,290 407.760521,290 C404.801363,290 402.268182,288.946536 400.160903,286.839577 C398.053624,284.732618 397,282.199823 397,279.241114 C397,276.282406 398.053624,273.74961 400.160903,271.642651 C402.192922,269.610941 404.620965,268.55882 407.445098,268.48626 L407.760521,268.482229 C419.686825,268.482229 429.841965,264.290788 438.226246,255.907781 C446.610528,247.524774 450.802606,237.371177 450.802606,225.446686 Z M560.368476,31.5456292 C560.368476,35.2216002 559.045842,38.3819913 556.400534,41.0268972 C553.755226,43.6718032 550.594355,44.9942363 546.917825,44.9942363 C543.241295,44.9942363 540.080424,43.6718032 537.435116,41.0268972 C534.789808,38.3819913 533.467174,35.2216002 533.467174,31.5456292 C533.467174,27.8696582 534.789808,24.7092671 537.435116,22.0643612 C540.080424,19.4194552 543.241295,18.0970221 546.917825,18.0970221 C550.594355,18.0970221 553.755226,19.4194552 556.400534,22.0643612 C559.045842,24.7092671 560.368476,27.8696582 560.368476,31.5456292 Z M536.157304,85.581172 C536.157304,82.6224636 537.210928,80.0896679 539.318207,77.9827089 C541.425486,75.87575 543.958667,74.8222863 546.917825,74.8222863 C549.876983,74.8222863 552.410164,75.87575 554.517443,77.9827089 C556.624722,80.0896679 557.678346,82.6224636 557.678346,85.581172 L557.678346,214.6878 C557.678346,217.646509 556.624722,220.179304 554.517443,222.286263 C552.410164,224.393222 549.876983,225.446686 546.917825,225.446686 C543.958667,225.446686 541.425486,224.393222 539.318207,222.286263 C537.210928,220.179304 536.157304,217.646509 536.157304,214.6878 L536.157304,85.581172 Z M627.359898,85.581172 C627.359898,82.6224636 628.413522,80.0896679 630.520801,77.9827089 C632.628081,75.87575 635.161261,74.8222863 638.120419,74.8222863 C641.079577,74.8222863 643.612758,75.87575 645.720037,77.9827089 C647.827317,80.0896679 648.88094,82.6224636 648.88094,85.581172 L648.88094,94.3227666 C662.331659,81.3223814 678.472279,74.8222863 697.303285,74.8222863 C716.582649,74.8222863 733.059532,81.6585932 746.734429,95.3314121 C760.409327,109.004231 767.246673,125.47861 767.246673,144.755043 L767.246673,214.6878 C767.246673,217.646509 766.193049,220.179304 764.08577,222.286263 C761.97849,224.393222 759.44531,225.446686 756.486151,225.446686 C753.526993,225.446686 750.993813,224.393222 748.886533,222.286263 C746.779254,220.179304 745.72563,217.646509 745.72563,214.6878 L745.72563,144.755043 C745.72563,131.396027 740.995532,119.987239 731.535193,110.528338 C722.074854,101.069437 710.664333,96.3400576 697.303285,96.3400576 C683.942238,96.3400576 672.531716,101.069437 663.071378,110.528338 C653.611039,119.987239 648.88094,131.396027 648.88094,144.755043 L648.88094,214.6878 C648.88094,217.646509 647.827317,220.179304 645.720037,222.286263 C643.612758,224.393222 641.079577,225.446686 638.120419,225.446686 C635.161261,225.446686 632.628081,224.393222 630.520801,222.286263 C628.413522,220.179304 627.359898,217.646509 627.359898,214.6878 L627.359898,85.581172 Z M898.491937,96.3400576 C883.606475,96.3400576 870.918154,101.584962 860.426593,112.074928 C849.935033,122.564894 844.689331,135.251286 844.689331,150.134486 C844.689331,165.017686 849.935033,177.704078 860.426593,188.194044 C870.918154,198.68401 883.606475,203.928915 898.491937,203.928915 C913.377398,203.928915 926.065719,198.68401 936.55728,188.194044 C947.04884,177.704078 952.294542,165.017686 952.294542,150.134486 C952.294542,135.251286 947.04884,122.564894 936.55728,112.074928 C926.065719,101.584962 913.377398,96.3400576 898.491937,96.3400576 Z M952.294542,202.853026 C937.229737,217.915541 919.295715,225.446686 898.491937,225.446686 C877.688158,225.446686 859.933476,218.094854 845.227357,203.39097 C830.521238,188.687086 823.168289,170.935102 823.168289,150.134486 C823.168289,129.33387 830.521238,111.581886 845.227357,96.8780019 C859.933476,82.174118 877.688158,74.8222863 898.491937,74.8222863 C919.295715,74.8222863 937.050397,82.174118 951.756516,96.8780019 C966.462635,111.581886 973.815584,129.33387 973.815584,150.134486 L973.815584,214.6878 C973.815584,217.646509 972.76196,220.179304 970.654681,222.286263 C968.547402,224.393222 966.014221,225.446686 963.055063,225.446686 C960.095905,225.446686 957.562724,224.393222 955.455445,222.286263 C953.348166,220.179304 952.294542,217.646509 952.294542,214.6878 L952.294542,202.853026 Z M1144.05931,203.928915 C1158.94477,203.928915 1171.63309,198.68401 1182.12465,188.194044 C1192.61621,177.704078 1197.86191,165.017686 1197.86191,150.134486 C1197.86191,135.251286 1192.61621,122.564894 1182.12465,112.074928 C1171.63309,101.584962 1158.94477,96.3400576 1144.05931,96.3400576 C1129.17384,96.3400576 1116.48552,101.584962 1105.99396,112.074928 C1095.5024,122.564894 1090.2567,135.251286 1090.2567,150.134486 C1090.2567,165.017686 1095.5024,177.704078 1105.99396,188.194044 C1116.48552,198.68401 1129.17384,203.928915 1144.05931,203.928915 Z M1090.2567,20.7588857 L1090.2567,97.4159462 L1090.79473,96.8780019 C1105.50084,82.174118 1123.25553,74.8222863 1144.05931,74.8222863 C1164.86308,74.8222863 1182.61777,82.174118 1197.32388,96.8780019 C1212.03,111.581886 1219.38295,129.33387 1219.38295,150.134486 C1219.38295,170.935102 1212.03,188.687086 1197.32388,203.39097 C1182.61777,218.094854 1164.86308,225.446686 1144.05931,225.446686 C1123.25553,225.446686 1105.50084,218.094854 1090.79473,203.39097 C1076.08861,188.687086 1068.73566,170.935102 1068.73566,150.134486 L1068.73566,20.7588857 C1068.73566,17.8001773 1069.78928,15.2673817 1071.89656,13.1604227 C1074.00384,11.0534637 1076.53702,10 1079.49618,10 C1082.45534,10 1084.98852,11.0534637 1087.0958,13.1604227 C1089.20308,15.2673817 1090.2567,17.8001773 1090.2567,20.7588857 Z M1420.95192,150.134486 C1420.95192,170.935102 1413.59897,188.687086 1398.89285,203.39097 C1384.18673,218.094854 1366.43205,225.446686 1345.62827,225.446686 C1324.82449,225.446686 1307.06981,218.094854 1292.36369,203.39097 C1277.65757,188.687086 1270.30462,170.935102 1270.30462,150.134486 C1270.30462,129.33387 1277.65757,111.581886 1292.36369,96.8780019 C1307.06981,82.174118 1324.82449,74.8222863 1345.62827,74.8222863 C1366.43205,74.8222863 1384.18673,82.174118 1398.89285,96.8780019 C1413.59897,111.581886 1420.95192,129.33387 1420.95192,150.134486 Z M1345.62827,96.3400576 C1330.74281,96.3400576 1318.05449,101.584962 1307.56293,112.074928 C1297.07137,122.564894 1291.82566,135.251286 1291.82566,150.134486 C1291.82566,165.017686 1297.07137,177.704078 1307.56293,188.194044 C1318.05449,198.68401 1330.74281,203.928915 1345.62827,203.928915 C1360.51373,203.928915 1373.20205,198.68401 1383.69361,188.194044 C1394.18517,177.704078 1399.43088,165.017686 1399.43088,150.134486 C1399.43088,135.251286 1394.18517,122.564894 1383.69361,112.074928 C1373.20205,101.584962 1360.51373,96.3400576 1345.62827,96.3400576 Z M1477.02585,208.097983 L1525.4482,150 L1477.42937,92.5744476 C1475.72561,90.6019754 1474.87375,88.2709068 1474.87375,85.581172 C1474.87375,82.6224636 1475.92737,80.0896679 1478.03465,77.9827089 C1480.14193,75.87575 1482.67511,74.8222863 1485.63427,74.8222863 C1488.59343,74.8222863 1491.23869,75.9429923 1493.57015,78.184438 L1539.43687,133.189241 L1585.30359,78.184438 C1587.63505,75.9429923 1590.28032,74.8222863 1593.23948,74.8222863 C1596.19864,74.8222863 1598.73182,75.87575 1600.8391,77.9827089 C1602.94638,80.0896679 1604,82.6224636 1604,85.581172 C1604,88.2709068 1603.14813,90.6019754 1601.44438,92.5744476 L1553.42555,150 L1601.8479,208.097983 C1603.28264,209.980797 1604,212.177381 1604,214.6878 C1604,217.646509 1602.94638,220.179304 1600.8391,222.286263 C1598.73182,224.393222 1596.19864,225.446686 1593.23948,225.446686 C1590.28032,225.446686 1587.76956,224.370808 1585.70711,222.21902 L1539.43687,166.810759 L1493.16663,222.21902 C1491.10419,224.370808 1488.59343,225.446686 1485.63427,225.446686 C1482.67511,225.446686 1480.14193,224.393222 1478.03465,222.286263 C1475.92737,220.179304 1474.87375,217.646509 1474.87375,214.6878 C1474.87375,212.177381 1475.59111,209.980797 1477.02585,208.097983 Z" id="jinabox" stroke="#00939B" stroke-width="7" fill="#00939B" fill-rule="nonzero"></path>
        </g>
    </g>
</svg>